<?xml version="1.0" standalone="no"?>
<!DOCTYPE svg PUBLIC "-//W3C//DTD SVG 20010904//EN"
 "http://www.w3.org/TR/2001/REC-SVG-20010904/DTD/svg10.dtd">
<svg version="1.0" xmlns="http://www.w3.org/2000/svg"
 width="278.000000pt" height="278.000000pt" viewBox="0 0 278.000000 278.000000"
 preserveAspectRatio="xMidYMid meet">
<metadata>
Created by potrace 1.11, written by Peter Selinger 2001-2013
</metadata>
<g transform="translate(0.000000,278.000000) scale(0.100000,-0.100000)"
fill="#000000" stroke="none">
<path d="M17 2476 c-21 -21 -13 -48 40 -130 25 -38 63 -104 86 -145 22 -42 55
-96 74 -120 18 -24 33 -48 33 -53 0 -14 69 -118 107 -163 82 -94 191 -198 223
-212 18 -8 52 -30 75 -48 22 -18 55 -40 73 -49 31 -16 41 -31 24 -38 -16 -6
-170 -195 -207 -254 -77 -120 -146 -302 -159 -417 -4 -33 -11 -70 -17 -84 -6
-17 -5 -33 3 -51 22 -45 43 -42 162 25 51 29 262 223 313 288 17 22 34 37 37
34 3 -3 12 -39 20 -80 24 -117 24 -118 52 -193 26 -70 105 -226 129 -256 6 -8
38 -60 70 -115 66 -112 78 -125 115 -119 48 9 58 15 70 43 6 16 22 39 36 52
13 12 24 27 24 33 1 6 25 52 55 101 60 100 174 309 217 398 l28 57 118 -117
c143 -144 206 -190 253 -189 27 1 37 7 48 31 23 46 15 245 -15 375 -56 239
-78 297 -149 383 -26 32 -46 60 -44 61 2 2 33 18 69 35 86 43 280 182 349 251
31 31 96 109 145 175 49 66 103 136 120 156 91 105 114 137 148 201 21 39 35
74 32 79 -8 14 -52 11 -61 -4 -8 -12 -189 -147 -198 -147 -2 0 -23 -13 -47
-29 -145 -96 -474 -236 -708 -301 -129 -36 -286 -62 -370 -62 -89 0 -250 11
-261 18 -4 2 -25 6 -48 9 -22 3 -71 12 -108 20 -37 9 -99 22 -138 30 -64 14
-107 28 -175 58 -34 15 -167 104 -175 117 -3 6 -23 19 -43 29 -20 11 -68 49
-105 85 -38 36 -98 85 -134 108 -36 23 -78 61 -94 85 -17 24 -34 43 -39 43 -4
0 -15 3 -23 6 -8 3 -21 -2 -30 -10z m1359 -1098 c15 -72 12 -191 -7 -234 -41
-96 -73 -154 -85 -154 -14 0 -40 53 -49 99 -30 158 -29 201 7 278 20 43 20 43
73 43 52 0 54 -1 61 -32z"/>
</g>
</svg>
